<?xml version="1.0" encoding="UTF-8" standalone="no"?>
<!-- Created with Inkscape (http://www.inkscape.org/) -->

<svg
   width="52.239895mm"
   height="27.40214mm"
   viewBox="0 0 52.239895 27.40214"
   version="1.1"
   id="svg1"
   xml:space="preserve"
   xmlns="http://www.w3.org/2000/svg"
   xmlns:svg="http://www.w3.org/2000/svg"><defs
     id="defs1" /><g
     id="layer1"
     transform="translate(-63.15722,-203.56416)"><path
       d="m 70.015148,203.56879 c -1.41889,0.0402 -2.796632,0.34126 -3.95273,0.88522 -0.981468,0.46179 -1.656229,0.9845 -2.171961,1.68258 -0.451168,0.61068 -0.809189,1.6414 -0.719335,2.07119 0.168541,0.80619 0.395824,1.33892 0.777213,1.8216 0.176299,0.22312 1.310248,1.34481 4.442106,4.39456 1.237009,1.20458 1.544484,1.50428 2.671672,2.60656 0.515746,0.50435 1.419023,1.38424 2.007112,1.95492 0.58809,0.57069 1.40652,1.36909 1.819011,1.77457 0.41249,0.40548 1.459961,1.42721 2.327506,2.27015 0.867545,0.84293 1.947952,1.89452 2.400887,2.3368 0.452936,0.44229 1.213562,1.18388 1.690336,1.64797 0.476775,0.46409 1.097296,1.07117 1.379244,1.34927 1.131005,1.11558 1.75981,1.534 3.041675,2.02416 1.23199,0.47109 3.158803,0.68534 4.72426,0.52555 1.291799,-0.13185 2.235697,-0.40445 3.434932,-0.99167 0.766446,-0.3753 1.041276,-0.61849 4.243152,-3.75584 0.35896,-0.35173 4.044492,-3.94569 5.123722,-4.9966 0.30845,-0.30036 0.95758,-0.9326 1.4428,-1.40508 0.48523,-0.47249 1.31161,-1.27847 1.83607,-1.79059 1.37562,-1.34328 2.28901,-2.23335 3.51451,-3.42511 0.59398,-0.57762 1.25513,-1.2214 1.46968,-1.43092 0.21455,-0.20953 0.76094,-0.74087 1.21388,-1.18081 1.51198,-1.46857 1.67074,-1.63307 1.95027,-2.01745 0.29807,-0.40988 0.47863,-0.80573 0.65215,-1.42782 0.094,-0.33718 0.0883,-0.47039 -0.045,-0.98288 -0.25789,-0.99163 -0.58596,-1.50231 -1.40664,-2.19005 -0.68605,-0.57493 -1.54311,-1.01094 -2.62464,-1.33583 -2.21429,-0.66518 -4.99082,-0.52854 -7.07813,0.3483 -1.03476,0.43467 -1.51628,0.82043 -3.73568,2.99413 -0.785985,0.7698 -2.2794,2.22668 -3.35949,3.2768 -0.524452,0.50991 -1.382408,1.34571 -1.90686,1.85777 -2.042543,1.99429 -3.269898,3.18905 -4.74338,4.61677 -0.510984,0.49511 -0.990211,0.91467 -1.065051,0.93276 -0.07484,0.0181 -0.205359,-0.007 -0.289905,-0.0548 -0.126397,-0.0721 -1.301497,-1.19156 -2.267045,-2.16007 -0.119193,-0.11956 -0.723781,-0.70969 -1.343587,-1.31155 -1.539431,-1.49485 -2.852959,-2.77336 -3.987871,-3.88193 -0.524452,-0.51228 -1.382408,-1.34662 -1.90686,-1.85415 -0.524451,-0.50753 -1.095683,-1.06562 -1.269173,-1.24024 -1.039229,-1.04602 -2.234345,-2.16184 -2.604492,-2.43137 -0.769536,-0.56036 -1.99575,-1.0677 -3.124874,-1.29295 -0.842116,-0.16799 -1.7082,-0.23803 -2.559534,-0.21394 z"
       id="path32"
       style="fill:#e8e8e8;fill-opacity:1" /></g></svg>
