<?xml version="1.0" encoding="UTF-8" standalone="no"?>
<!-- Created with Inkscape (http://www.inkscape.org/) -->

<svg
   width="52.239895mm"
   height="27.40214mm"
   viewBox="0 0 52.239895 27.40214"
   version="1.1"
   id="svg1"
   xml:space="preserve"
   xmlns:inkscape="http://www.inkscape.org/namespaces/inkscape"
   xmlns:sodipodi="http://sodipodi.sourceforge.net/DTD/sodipodi-0.dtd"
   xmlns="http://www.w3.org/2000/svg"
   xmlns:svg="http://www.w3.org/2000/svg"><sodipodi:namedview
     id="namedview1"
     pagecolor="#ffffff"
     bordercolor="#000000"
     borderopacity="0.25"
     inkscape:showpageshadow="2"
     inkscape:pageopacity="0.0"
     inkscape:pagecheckerboard="0"
     inkscape:deskcolor="#d1d1d1"
     inkscape:document-units="mm" /><defs
     id="defs1" /><g
     inkscape:label="Lager 1"
     inkscape:groupmode="layer"
     id="layer1"
     transform="translate(-63.15722,-203.56416)"><path
       d="m 108.53919,230.96166 c 1.41889,-0.0402 2.79663,-0.34126 3.95273,-0.88522 0.98146,-0.46179 1.65623,-0.9845 2.17196,-1.68258 0.45117,-0.61068 0.80919,-1.6414 0.71933,-2.07119 -0.16854,-0.80619 -0.39582,-1.33892 -0.77721,-1.8216 -0.1763,-0.22312 -1.31025,-1.34481 -4.44211,-4.39456 -1.23701,-1.20458 -1.54448,-1.50428 -2.67167,-2.60656 -0.51574,-0.50435 -1.41902,-1.38424 -2.00711,-1.95492 -0.58809,-0.57069 -1.40652,-1.36909 -1.81901,-1.77457 -0.41249,-0.40548 -1.45996,-1.42721 -2.32751,-2.27015 -0.86754,-0.84293 -1.947948,-1.89452 -2.400878,-2.3368 -0.45294,-0.44229 -1.21357,-1.18388 -1.69034,-1.64797 -0.47678,-0.46409 -1.0973,-1.07117 -1.37924,-1.34927 -1.13101,-1.11558 -1.75981,-1.534 -3.04168,-2.02416 -1.23199,-0.47109 -3.1588,-0.68534 -4.72426,-0.52555 -1.2918,0.13185 -2.2357,0.40445 -3.43493,0.99167 -0.76645,0.3753 -1.04128,0.61849 -4.24315,3.75584 -0.35896,0.35173 -4.0445,3.94569 -5.12373,4.9966 -0.30845,0.30036 -0.95758,0.9326 -1.4428,1.40508 -0.48523,0.47249 -1.31161,1.27847 -1.83607,1.79059 -1.37562,1.34328 -2.28901,2.23335 -3.51451,3.42511 -0.59398,0.57762 -1.25513,1.2214 -1.46968,1.43092 -0.21455,0.20953 -0.76094,0.74087 -1.21388,1.18081 -1.51198,1.46857 -1.67074,1.63307 -1.95027,2.01745 -0.29807,0.40988 -0.47863,0.80573 -0.65215,1.42782 -0.094,0.33718 -0.0883,0.47039 0.045,0.98288 0.25789,0.99163 0.58596,1.50231 1.40664,2.19005 0.68605,0.57493 1.54311,1.01094 2.62464,1.33583 2.21429,0.66518 4.99082,0.52854 7.07813,-0.3483 1.03476,-0.43467 1.51628,-0.82043 3.73568,-2.99413 0.78599,-0.7698 2.2794,-2.22668 3.35949,-3.2768 0.52446,-0.50991 1.38241,-1.34571 1.90686,-1.85777 2.04255,-1.99429 3.2699,-3.18905 4.74338,-4.61677 0.51099,-0.49511 0.99022,-0.91467 1.06506,-0.93276 0.0748,-0.0181 0.20535,0.007 0.2899,0.0548 0.1264,0.0721 1.3015,1.19156 2.26705,2.16007 0.11919,0.11956 0.72378,0.70969 1.34358,1.31155 1.53943,1.49485 2.85296,2.77336 3.98787,3.88193 0.52446,0.51228 1.38241,1.34662 1.90686,1.85415 0.52445,0.50753 1.095688,1.06562 1.269178,1.24024 1.03923,1.04602 2.23434,2.16184 2.60449,2.43137 0.76953,0.56036 1.99575,1.0677 3.12487,1.29295 0.84212,0.16799 1.7082,0.23803 2.55954,0.21394 z"
       id="path32"
       style="fill:#e8e8e8;fill-opacity:1"
       inkscape:export-filename="arrow_down.svg"
       inkscape:export-xdpi="96"
       inkscape:export-ydpi="96" /></g></svg>
