<?xml version="1.0" encoding="UTF-8" standalone="no"?>
<!-- Created with Inkscape (http://www.inkscape.org/) -->

<svg
   width="42.825924mm"
   height="42.678459mm"
   viewBox="0 0 42.825924 42.678459"
   version="1.1"
   id="svg1"
   xml:space="preserve"
   sodipodi:docname="ikoner.svg"
   inkscape:version="1.3.2 (091e20e, 2023-11-25, custom)"
   inkscape:export-filename="Weccs_Hemsida\assets\ikon_send.svg"
   inkscape:export-xdpi="96"
   inkscape:export-ydpi="96"
   xmlns:inkscape="http://www.inkscape.org/namespaces/inkscape"
   xmlns:sodipodi="http://sodipodi.sourceforge.net/DTD/sodipodi-0.dtd"
   xmlns:xlink="http://www.w3.org/1999/xlink"
   xmlns="http://www.w3.org/2000/svg"
   xmlns:svg="http://www.w3.org/2000/svg"><sodipodi:namedview
     id="namedview1"
     pagecolor="#d6d6d6"
     bordercolor="#000000"
     borderopacity="0.25"
     inkscape:showpageshadow="2"
     inkscape:pageopacity="0.0"
     inkscape:pagecheckerboard="0"
     inkscape:deskcolor="#d1d1d1"
     inkscape:document-units="mm"
     inkscape:zoom="0.86056398"
     inkscape:cx="701.86531"
     inkscape:cy="90.05722"
     inkscape:window-width="1920"
     inkscape:window-height="991"
     inkscape:window-x="-9"
     inkscape:window-y="-9"
     inkscape:window-maximized="1"
     inkscape:current-layer="layer1" /><defs
     id="defs1"><linearGradient
       id="linearGradient14"
       inkscape:collect="always"><stop
         style="stop-color:#ff4f61;stop-opacity:1;"
         offset="0.58128655"
         id="stop15" /><stop
         style="stop-color:#fd2771;stop-opacity:0;"
         offset="1"
         id="stop16" /></linearGradient><linearGradient
       inkscape:collect="always"
       xlink:href="#linearGradient14"
       id="linearGradient16"
       x1="155.87747"
       y1="102.43147"
       x2="132.17827"
       y2="152.43402"
       gradientUnits="userSpaceOnUse"
       gradientTransform="translate(133.70243,102.18028)" /></defs><g
     inkscape:label="Lager 1"
     inkscape:groupmode="layer"
     id="layer1"
     transform="translate(-133.70243,-102.18028)"><path
       id="path24"
       style="fill:url(#linearGradient16);fill-opacity:1;stroke-width:1"
       d="m 176.35254,102.18394 c -0.85376,-0.18077 -9.16153,6.37004 -16.7659,13.21987 -3.10753,2.79918 -8.40331,7.95681 -9.67434,9.42216 -0.84866,0.9784 -0.87772,1.04529 -0.64286,1.48622 0.37242,0.69919 1.73551,2.15743 2.63033,2.8143 0.43812,0.32162 0.89652,0.58644 1.01906,0.58911 0.41555,0.008 5.70193,-5.24659 9.3276,-9.27179 6.12609,-6.80115 12.63589,-14.91902 13.99501,-17.45165 0.35436,-0.66035 0.36738,-0.75393 0.1111,-0.80822 z m -27.87892,24.53804 c -0.14553,-0.0131 -0.52991,0.43248 -1.2733,1.45211 -1.55927,2.13867 -1.62346,2.26467 -1.46245,2.8546 0.17274,0.63288 1.12319,1.6551 1.83452,1.97353 0.29153,0.13051 0.59984,0.24042 0.68523,0.24443 0.33925,0.0151 3.82575,-2.54113 3.81527,-2.79725 -0.003,-0.0612 -0.41191,-0.38816 -0.91054,-0.72657 -0.86657,-0.58812 -2.61845,-2.48741 -2.61845,-2.8391 0,-0.1019 -0.0218,-0.15738 -0.0703,-0.16175 z m -5.58725,4.27209 c -1.19999,-0.0129 -2.32415,0.40806 -3.25252,1.22525 -1.05853,0.93176 -1.53038,1.68225 -2.03863,3.2427 -0.51951,1.59503 -1.45685,3.39578 -2.24896,4.32118 -0.34429,0.40223 -0.59655,0.76056 -0.56069,0.79582 0.0359,0.0353 0.3632,-0.0392 0.72761,-0.16485 0.40256,-0.13876 0.663,-0.15922 0.663,-0.0527 0,0.43225 -1.17692,2.32058 -1.79317,2.87734 -0.37422,0.33808 -0.68058,0.65284 -0.68058,0.69918 0,0.13191 1.09163,0.66726 1.67845,0.82321 0.87564,0.2327 3.4453,0.0269 4.77077,-0.38241 1.89555,-0.58528 3.24315,-1.38029 4.51704,-2.66392 1.93527,-1.95004 3.23231,-5.01334 2.89956,-6.84919 -0.0926,-0.5106 -0.28195,-0.74788 -0.93431,-1.17047 -0.71261,-0.46164 -1.46299,-1.28569 -2.0655,-2.26911 -0.11277,-0.18405 -0.53378,-0.32833 -1.16376,-0.39946 -0.17417,-0.0196 -0.34689,-0.0307 -0.51831,-0.0326 z"
       inkscape:export-filename="Weccs_Hemsida\assets\ikon_design2.svg"
       inkscape:export-xdpi="96"
       inkscape:export-ydpi="96" /></g></svg>
