<?xml version="1.0" encoding="UTF-8" standalone="no"?>
<!-- Created with Inkscape (http://www.inkscape.org/) -->

<svg
   width="55.647591mm"
   height="55.380871mm"
   viewBox="0 0 55.647591 55.380871"
   version="1.1"
   id="svg1"
   xml:space="preserve"
   sodipodi:docname="ikoner.svg"
   inkscape:version="1.3.2 (091e20e, 2023-11-25, custom)"
   xmlns:inkscape="http://www.inkscape.org/namespaces/inkscape"
   xmlns:sodipodi="http://sodipodi.sourceforge.net/DTD/sodipodi-0.dtd"
   xmlns="http://www.w3.org/2000/svg"
   xmlns:svg="http://www.w3.org/2000/svg"><sodipodi:namedview
     id="namedview1"
     pagecolor="#d6d6d6"
     bordercolor="#000000"
     borderopacity="0.25"
     inkscape:showpageshadow="2"
     inkscape:pageopacity="0.0"
     inkscape:pagecheckerboard="0"
     inkscape:deskcolor="#d1d1d1"
     inkscape:document-units="mm"
     inkscape:zoom="0.60851062"
     inkscape:cx="898.91611"
     inkscape:cy="756.76576"
     inkscape:window-width="1920"
     inkscape:window-height="991"
     inkscape:window-x="-9"
     inkscape:window-y="-9"
     inkscape:window-maximized="1"
     inkscape:current-layer="layer1" /><defs
     id="defs1" /><g
     inkscape:label="Lager 1"
     inkscape:groupmode="layer"
     id="layer1"
     transform="translate(-263.10668,-95.452494)"><path
       d="m 291.69552,110.96053 c -1.12784,0 -1.79129,0.0668 -1.91702,0.19245 -0.14339,0.1434 -0.19215,1.89417 -0.19215,6.88951 v 6.69704 h -0.72099 -0.721 v -4.51341 c 0,-3.97513 -0.0315,-4.54858 -0.26505,-4.80663 -0.22109,-0.24432 -0.51581,-0.29321 -1.77306,-0.29321 -0.82929,0 -1.64738,0.0746 -1.81782,0.16584 -0.2955,0.15814 -0.3098,0.38251 -0.3098,4.81539 v 4.64955 l -0.76105,-0.0489 -0.76105,-0.0485 -0.0435,-1.76242 c -0.0352,-1.42448 -0.0949,-1.80084 -0.31105,-1.96271 -0.16826,-0.12603 -0.80906,-0.20028 -1.72832,-0.20028 -0.91926,0 -1.56007,0.0743 -1.72833,0.20028 -0.21611,0.16187 -0.2758,0.53823 -0.31105,1.96271 l -0.0435,1.76242 h -0.72099 -0.721 l -0.0435,-3.11241 c -0.0276,-1.96499 -0.10867,-3.19047 -0.21998,-3.32458 -0.23445,-0.28253 -3.35036,-0.29967 -3.63001,-0.02 -0.13879,0.13877 -0.19215,1.25328 -0.19215,4.00553 v 3.81307 h 10.49448 10.49447 V 118.801 c 0,-4.67086 -0.0586,-7.32991 -0.16584,-7.53039 -0.14822,-0.2769 -0.34951,-0.31012 -1.89074,-0.31012 z"
       id="path48"
       style="stroke-width:1" /><path
       d="m 291.69552,110.96053 c 1.54122,0 1.74252,0.0333 1.89073,0.31012 0.10731,0.20047 0.16585,2.85952 0.16585,7.53038 v 7.22027 h -10.49447 -10.49447 v -3.81307 c 0,-2.75224 0.0533,-3.86675 0.19214,-4.00552 0.27964,-0.27964 3.39556,-0.2625 3.63,0.02 0.11129,0.13411 0.19246,1.35961 0.22,3.32459 l 0.0435,3.11241 h 0.72098 0.721 l 0.0435,-1.76243 c 0.0352,-1.42448 0.0949,-1.80084 0.31106,-1.96271 0.16825,-0.12603 0.80905,-0.20027 1.72832,-0.20027 0.91925,0 1.56006,0.0743 1.72832,0.20027 0.21611,0.16187 0.2758,0.53823 0.31106,1.96271 l 0.0435,1.76243 0.76106,0.0485 0.76105,0.0488 v -4.64954 c 0,-4.43289 0.0143,-4.65726 0.30979,-4.81539 0.17045,-0.0912 0.98854,-0.16585 1.81783,-0.16585 1.25725,0 1.55197,0.0489 1.77306,0.29322 0.23353,0.25805 0.26506,0.83149 0.26506,4.80663 v 4.51341 h 0.72099 0.721 v -6.69705 c 0,-4.99533 0.0488,-6.7461 0.19214,-6.8895 0.12572,-0.12573 0.78917,-0.19246 1.91703,-0.19246 z"
       id="path47"
       style="fill:#af32ff;fill-opacity:1;stroke-width:1" /><path
       d="m 291.47771,103.95837 c -1.02384,0.0759 -1.94213,1.03966 -1.85317,2.08256 0.0501,0.58689 0.0114,0.63828 -1.11842,1.48862 -1.08082,0.81346 -1.21587,0.8719 -1.76744,0.76574 -1.18558,-0.2282 -1.95489,0.0387 -2.45776,0.85242 -0.2694,0.43591 -0.32277,0.71074 -0.25285,1.30274 l 0.0885,0.75042 -1.36281,1.37751 -1.36314,1.37722 -0.78608,-0.0758 c -0.57654,-0.0554 -0.90041,-6e-4 -1.21354,0.20435 -0.41773,0.2737 -0.45106,0.26806 -1.52461,-0.25129 -1.01437,-0.49072 -1.09776,-0.56926 -1.09776,-1.03892 0,-0.88315 -1.03792,-1.83347 -2.00277,-1.83347 -1.04761,0 -2.00388,0.9491 -2.00025,1.98461 0.003,0.84858 0.2695,1.3609 0.94474,1.81594 0.66425,0.44763 1.19974,0.46151 2.00307,0.0519 l 0.6146,-0.31324 0.97885,0.51571 c 0.89204,0.46992 0.98832,0.57183 1.08149,1.14501 0.0714,0.43966 0.27652,0.78879 0.68094,1.15942 0.45654,0.41838 0.71609,0.5301 1.22982,0.5301 1.38101,0 2.17243,-0.87593 2.03969,-2.25749 l -0.0733,-0.7623 1.37721,-1.36282 1.37722,-1.36282 0.73445,0.0867 c 0.50893,0.0602 0.88977,0.007 1.24013,-0.17462 0.63449,-0.3281 1.20669,-1.39339 1.07368,-1.99901 -0.0868,-0.39535 0.0188,-0.52302 1.12248,-1.35782 1.1831,-0.89485 1.23433,-0.91598 1.77871,-0.73632 0.82451,0.27212 1.55699,0.0738 2.12731,-0.57579 0.26982,-0.3073 0.53428,-0.73386 0.58799,-0.94787 0.23985,-0.95561 -0.67822,-2.21365 -1.7643,-2.41739 -0.14794,-0.0277 -0.29654,-0.035 -0.4428,-0.0242 z m 0.22719,1.07398 c 0.38243,0 0.92566,0.56417 0.92566,0.96133 0,0.17624 -0.1442,0.46464 -0.32045,0.64088 -0.38495,0.38494 -0.76683,0.40672 -1.24608,0.0711 -0.7095,-0.49695 -0.25896,-1.67324 0.64087,-1.67324 z m -5.65592,4.18108 c 0.11867,0.0124 0.23925,0.0911 0.44593,0.24533 0.55116,0.41114 0.63238,0.75815 0.29729,1.26957 -0.30405,0.46403 -1.0491,0.53184 -1.44887,0.13206 -0.3992,-0.39918 -0.25406,-1.20066 0.27036,-1.49362 0.19989,-0.11164 0.31663,-0.16575 0.43529,-0.15334 z m -11.28994,2.87491 c 0.21345,-0.006 0.43403,0.0781 0.62305,0.28696 0.35016,0.38696 0.33696,1.03421 -0.0279,1.36437 -0.42255,0.38241 -0.91729,0.3266 -1.28865,-0.14551 -0.52413,-0.6663 0.0531,-1.48871 0.69345,-1.50582 z m 5.65717,2.74034 c 0.11612,0.006 0.23202,0.0679 0.41964,0.19089 0.53017,0.34737 0.59638,1.28233 0.10925,1.54306 -0.77748,0.41611 -1.50315,-0.018 -1.42134,-0.85054 0.0333,-0.33896 0.18226,-0.57007 0.47096,-0.73133 0.18904,-0.1056 0.3054,-0.15743 0.42153,-0.15208 z"
       id="path46"
       style="fill:#af32ff;fill-opacity:1;stroke-width:1" /><path
       d="m 283.74143,95.455086 c -2.99073,-0.04739 -6.00924,0.553571 -8.81529,1.806558 -5.06845,2.263209 -9.20442,6.919486 -10.8872,12.256886 -0.71874,2.27969 -0.93525,3.72955 -0.93222,6.24862 0.005,3.59014 0.69611,6.41782 2.31256,9.44961 1.20349,2.25723 1.60623,2.78479 3.73234,4.89017 3.58491,3.55 7.38177,5.3236 12.5207,5.84807 4.51517,0.46081 10.06471,-1.05086 13.5249,-3.68414 0.57105,-0.43459 1.10957,-0.79307 1.19665,-0.7961 0.087,-0.003 1.2544,1.08845 2.59389,2.42584 l 2.43523,2.43179 -0.092,1.30618 c -0.16071,2.27752 0.007,2.58139 3.13746,5.6866 5.68638,5.64049 7.12084,6.96219 7.86929,7.24936 1.11721,0.42867 3.09497,0.30942 4.03838,-0.24345 0.77836,-0.45615 1.57795,-1.28061 1.96208,-2.02342 0.62329,-1.20532 0.53447,-3.34545 -0.18682,-4.50371 -0.19137,-0.30732 -2.33936,-2.50559 -4.77315,-4.88486 -5.04871,-4.93565 -5.64159,-5.3674 -7.37266,-5.3674 -0.55936,0 -1.19281,0.067 -1.40757,0.14864 -0.35847,0.13629 -0.60132,-0.0621 -2.96471,-2.42053 l -2.57417,-2.56885 0.6099,-0.7717 c 1.44872,-1.83276 2.88344,-4.89512 3.56742,-7.61456 0.31432,-1.2497 0.36014,-1.84334 0.35893,-4.63764 -10e-4,-2.84334 -0.0436,-3.36641 -0.37708,-4.64328 -1.57939,-6.04761 -5.39124,-10.80211 -10.82806,-13.5055 -2.69514,-1.340119 -5.65808,-2.035819 -8.6488,-2.083184 z m -0.67875,3.690084 c 5.12087,-0.11209 10.23507,2.1238 13.58278,6.56656 2.23728,2.96908 3.34498,6.2389 3.35182,9.8952 0.009,4.65912 -1.65994,8.71247 -4.9149,11.9396 -2.32683,2.30692 -5.27598,3.85772 -8.54022,4.49056 -1.49045,0.28899 -5.14472,0.27474 -6.52587,-0.0254 -6.19314,-1.34557 -11.08233,-5.9462 -12.68594,-11.9371 -0.5463,-2.04101 -0.71788,-4.06291 -0.50193,-5.92034 0.48839,-4.20098 2.17824,-7.65258 5.10172,-10.42032 3.16254,-2.99406 7.14963,-4.50164 11.13254,-4.588817 z"
       id="path45"
       style="fill:#af32ff;fill-opacity:1;stroke-width:1" /></g></svg>
