<?xml version="1.0" encoding="UTF-8" standalone="no"?>
<!-- Created with Inkscape (http://www.inkscape.org/) -->

<svg
   width="62.893772mm"
   height="41.266262mm"
   viewBox="0 0 62.893772 41.266262"
   version="1.1"
   id="svg1"
   xml:space="preserve"
   xmlns="http://www.w3.org/2000/svg"
   xmlns:svg="http://www.w3.org/2000/svg"><defs
     id="defs1" /><g
     id="layer1"
     transform="translate(-195.01989,-94.974566)"><path
       d="m 215.7491,116.7536 c -0.16369,0 -4.53505,4.21521 -9.71361,9.36738 -6.38389,6.35135 -9.36851,9.49063 -9.26921,9.74928 0.21649,0.56415 59.43856,0.45072 59.62686,-0.11421 0.13589,-0.40767 -18.45687,-19.00245 -19.0004,-19.00245 -0.179,0 -1.88255,1.56616 -3.78529,3.48092 -3.99193,4.01712 -4.85245,4.57647 -7.05022,4.57647 -2.1978,0 -3.05932,-0.55935 -7.05125,-4.57647 -1.90275,-1.91476 -3.5932,-3.48092 -3.75688,-3.48092 z"
       style="fill:#fffed0;fill-opacity:1;stroke-width:0.999995"
       id="path17" /><path
       d="m 239.51171,114.76578 c -0.002,0.45944 -0.007,0.65862 -0.009,1.10019 l 8.88215,8.88215 9.43095,9.43095 0.0692,-9.39323 c 0.0382,-5.16631 0.0382,-13.60638 0,-18.75544 l -0.0692,-9.361708 -9.43095,9.324498 z"
       id="path20"
       style="fill:#fffed0;fill-opacity:1" /><path
       d="m 195.28627,96.593587 c -0.15926,-0.272579 -0.25327,6.507553 -0.25838,18.620053 l -0.008,19.04845 9.51776,-9.51467 9.51777,-9.51518 -9.25939,-9.10487 c -5.09255,-5.00772 -9.37225,-9.298013 -9.51001,-9.533783 z"
       style="fill:#fffed0;fill-opacity:1"
       id="path18" /><path
       d="m 255.77439,94.974565 -29.08556,0.0021 -29.08505,0.0021 13.26741,13.246745 c 10.17509,10.15943 13.4755,13.30891 14.16037,13.51235 1.23149,0.36582 3.19059,0.1485 4.16357,-0.46147 v -5.2e-4 c 0.44639,-0.27986 6.60921,-6.312 13.69529,-13.40486 z"
       id="path19"
       style="fill:#fffed0;fill-opacity:1" /></g></svg>
