<?xml version="1.0" encoding="UTF-8" standalone="no"?>
<!-- Created with Inkscape (http://www.inkscape.org/) -->

<svg
   width="56.605267mm"
   height="53.740166mm"
   viewBox="0 0 56.605267 53.740166"
   version="1.1"
   id="svg1"
   xml:space="preserve"
   sodipodi:docname="Namnlöst dokument 1"
   xmlns:inkscape="http://www.inkscape.org/namespaces/inkscape"
   xmlns:sodipodi="http://sodipodi.sourceforge.net/DTD/sodipodi-0.dtd"
   xmlns="http://www.w3.org/2000/svg"
   xmlns:svg="http://www.w3.org/2000/svg"><sodipodi:namedview
     id="namedview1"
     pagecolor="#d6d6d6"
     bordercolor="#000000"
     borderopacity="0.25"
     inkscape:showpageshadow="2"
     inkscape:pageopacity="0.0"
     inkscape:pagecheckerboard="0"
     inkscape:deskcolor="#d1d1d1"
     inkscape:document-units="mm"
     inkscape:zoom="1.7211279"
     inkscape:cx="450.86712"
     inkscape:cy="261.74696"
     inkscape:window-width="1920"
     inkscape:window-height="991"
     inkscape:window-x="-9"
     inkscape:window-y="-9"
     inkscape:window-maximized="1"
     inkscape:current-layer="layer1" /><defs
     id="defs1"><inkscape:path-effect
       effect="fillet_chamfer"
       id="path-effect10"
       is_visible="true"
       lpeversion="1"
       nodesatellites_param="F,0,0,1,0,0.59199409,0,1 @ F,0,0,1,0,0.5699919,0,1 @ F,0,0,1,0,0,0,1 @ F,0,0,1,0,0,0,1 @ F,0,0,1,0,0,0,1 @ F,0,0,1,0,0,0,1 @ F,0,0,1,0,0,0,1 @ F,0,0,1,0,0.58467168,0,1 @ F,0,0,1,0,0,0,1 @ F,0,0,1,0,0,0,1 @ F,0,0,1,0,0.72287779,0,1 @ F,0,0,1,0,0,0,1 @ F,0,0,1,0,0,0,1 @ F,0,0,1,0,0,0,1 @ F,0,0,1,0,0,0,1 @ F,0,0,1,0,0,0,1"
       radius="0"
       unit="px"
       method="auto"
       mode="F"
       chamfer_steps="1"
       flexible="false"
       use_knot_distance="true"
       apply_no_radius="true"
       apply_with_radius="true"
       only_selected="false"
       hide_knots="false" /><inkscape:path-effect
       effect="fillet_chamfer"
       id="path-effect9"
       is_visible="true"
       lpeversion="1"
       nodesatellites_param="F,0,0,1,0,0.36605597,0,1 @ F,0,0,1,0,0.35034216,0,1 @ F,0,0,1,0,0.53282943,0,1 @ F,0,0,1,0,0,0,1 @ F,0,0,1,0,0,0,1 @ F,0,0,1,0,0,0,1 @ F,0,0,1,0,0,0,1 @ F,0,0,1,0,0.87290697,0,1 @ F,0,0,1,0,0.84771215,0,1 @ F,0,0,1,0,0,0,1 @ F,0,0,1,0,0,0,1 @ F,0,0,1,0,0,0,1 @ F,0,0,1,0,0,0,1 @ F,0,0,1,0,0,0,1 @ F,0,0,1,0,0.21979291,0,1 @ F,0,0,1,0,0,0,1 @ F,0,0,1,0,0,0,1 @ F,0,0,1,0,0,0,1 @ F,0,0,1,0,0.38820425,0,1 @ F,0,0,1,0,0,0,1 @ F,0,0,1,0,0.46022757,0,1"
       radius="0"
       unit="px"
       method="auto"
       mode="F"
       chamfer_steps="1"
       flexible="false"
       use_knot_distance="true"
       apply_no_radius="true"
       apply_with_radius="true"
       only_selected="false"
       hide_knots="false" /></defs><g
     inkscape:label="Lager 1"
     inkscape:groupmode="layer"
     id="layer1"
     transform="translate(-166.40531,-16.677128)"><path
       style="opacity:1;fill:#fffed0;fill-opacity:1;stroke:none;stroke-width:5.7;stroke-dasharray:none;stroke-opacity:1"
       d="m 164.04666,39.773371 6.72661,6.941293 a 0.35184782,0.35184782 1.0227377 0 0 0.49644,0.0089 l 3.28317,-3.15443 c 0.2122,-0.203881 0.37237,-0.607529 0.37071,-0.901773 -0.005,-0.957579 0.0739,-2.946877 0.78215,-3.771726 0.77588,-0.903642 1.79864,-1.017277 2.97435,-0.826846 1.22287,0.198068 1.90183,1.074537 3.36687,1.922145 0.48638,0.281397 1.5757,-0.326669 1.5757,-0.326669 l 30.92106,33.409835 a 0.83978906,0.83978906 1.1077241 0 0 1.21016,0.0234 l 4.54809,-4.548097 a 0.85007578,0.85007578 90.079717 0 0 0.002,-1.200513 L 188.3996,35.266707 c 0,0 0.75922,-1.235823 0.48915,-1.79357 -1.11044,-2.293306 -4.07629,-5.86987 -4.07629,-5.86987 0,0 3.51382,-3.406376 5.88192,-3.894593 2.24946,-0.463757 5.42357,0.842715 7.92426,0.799341 0.5693,-0.0099 0.99921,-0.551737 1.19184,-0.847503 0.0658,-0.101096 0.0289,-0.241414 -0.0737,-0.306346 -0.94222,-0.59652 -5.26536,-3.256312 -7.96086,-3.596036 -2.86243,-0.360762 -4.8619,-0.117633 -7.5179,1.009019 -1.53586,0.651499 -3.9372,2.166581 -5.20674,3.248978 -1.86188,1.587423 -4.8448,4.992357 -5.72581,6.010962 -0.13999,0.161861 -0.23923,0.467078 -0.23065,0.681334 0.0339,0.846448 0.0324,2.847205 -0.67431,3.634324 -0.77407,0.862186 -2.93833,1.10564 -3.88962,1.171944 -0.25291,0.01763 -0.60947,0.163921 -0.79579,0.336812 l -3.67486,3.410004 a 0.3582118,0.3582118 91.520398 0 0 -0.0136,0.511864 z"
       id="path8"
       sodipodi:nodetypes="cccsssccccscsscssscscc"
       inkscape:path-effect="#path-effect9"
       inkscape:original-d="m 163.79192,39.510497 7.22516,7.455756 3.92002,-3.766316 c 0,0 -0.18081,-3.198548 0.76864,-4.30434 0.77588,-0.903642 1.79864,-1.017277 2.97435,-0.826846 1.22287,0.198068 1.90183,1.074537 3.36687,1.922145 0.48638,0.281397 1.5757,-0.326669 1.5757,-0.326669 L 215.13664,73.7147 220.90139,67.94994 188.3996,35.266707 c 0,0 0.75922,-1.235823 0.48915,-1.79357 -1.11044,-2.293306 -4.07629,-5.86987 -4.07629,-5.86987 0,0 3.51382,-3.406376 5.88192,-3.894593 2.24946,-0.463757 5.42357,0.842715 7.92426,0.799341 0.78373,-0.01359 1.30328,-1.035388 1.30328,-1.035388 0,0 -5.10726,-3.331515 -8.14599,-3.714497 -2.86243,-0.360762 -4.8619,-0.117633 -7.5179,1.009019 -1.53586,0.651499 -3.9372,2.166581 -5.20674,3.248978 -2.20391,1.879034 -5.97856,6.30467 -5.97856,6.30467 0,0 0.25512,3.01133 -0.65221,4.02195 -1.0042,1.11851 -4.34805,1.19571 -4.34805,1.19571 z"
       transform="translate(2.4596273,-2.9261345)"
       inkscape:export-filename="ikon_services2.svg"
       inkscape:export-xdpi="96"
       inkscape:export-ydpi="96" /><path
       style="opacity:1;fill:#fffed0;fill-opacity:1;stroke:none;stroke-width:5.7;stroke-dasharray:none;stroke-opacity:1"
       d="m 167.81262,67.820402 4.12403,3.968968 a 0.59107452,0.59107452 179.94266 0 0 0.82059,-8.21e-4 l 15.56747,-15.042302 c 0,0 2.01595,-0.124739 2.82624,-0.6522 0.75917,-0.494184 1.63051,-2.17403 1.63051,-2.17403 l -2.60882,-2.60883 19.89231,-21.19673 4.64776,-1.065109 a 1.1524992,1.1524992 140.1936 0 0 0.80111,-0.667612 l 3.13853,-7.289479 -1.84792,-1.84792 -6.74512,3.372558 a 1.643272,1.643272 129.69019 0 0 -0.84515,1.018345 l -1.32323,4.631296 -20.21842,20.76193 -2.50013,-2.50013 c 0,0 -1.41231,1.014121 -1.84792,1.739221 -0.4255,0.708275 -0.65221,2.39143 -0.65221,2.39143 l -14.88712,16.313622 a 0.60791266,0.60791266 88.142327 0 0 0.0275,0.847793 z"
       id="path9"
       sodipodi:nodetypes="cccsccccccccccacc"
       inkscape:path-effect="#path-effect10"
       inkscape:original-d="m 167.38608,67.409894 4.96126,4.774727 15.97737,-15.438374 c 0,0 2.01595,-0.124739 2.82624,-0.6522 0.75917,-0.494184 1.63051,-2.17403 1.63051,-2.17403 l -2.60882,-2.60883 19.89231,-21.19673 5.21766,-1.19571 3.36974,-7.82649 -1.84792,-1.84792 -7.39168,3.695839 -1.52182,5.32636 -20.21842,20.76193 -2.50013,-2.50013 c 0,0 -1.41231,1.014121 -1.84792,1.739221 -0.4255,0.708275 -0.65221,2.39143 -0.65221,2.39143 z"
       transform="translate(0.61490683,-1.5372671)" /></g></svg>
