<?xml version="1.0" encoding="UTF-8" standalone="no"?>
<!-- Created with Inkscape (http://www.inkscape.org/) -->

<svg
   width="42.825981mm"
   height="42.67836mm"
   viewBox="0 0 42.825981 42.67836"
   version="1.1"
   id="svg1"
   xml:space="preserve"
   sodipodi:docname="Namnlöst dokument 1"
   xmlns:inkscape="http://www.inkscape.org/namespaces/inkscape"
   xmlns:sodipodi="http://sodipodi.sourceforge.net/DTD/sodipodi-0.dtd"
   xmlns="http://www.w3.org/2000/svg"
   xmlns:svg="http://www.w3.org/2000/svg"><sodipodi:namedview
     id="namedview1"
     pagecolor="#d6d6d6"
     bordercolor="#000000"
     borderopacity="0.25"
     inkscape:showpageshadow="2"
     inkscape:pageopacity="0.0"
     inkscape:pagecheckerboard="0"
     inkscape:deskcolor="#d1d1d1"
     inkscape:document-units="mm"
     inkscape:zoom="0.86056397"
     inkscape:cx="768.10094"
     inkscape:cy="529.30405"
     inkscape:window-width="1920"
     inkscape:window-height="991"
     inkscape:window-x="-9"
     inkscape:window-y="-9"
     inkscape:window-maximized="1"
     inkscape:current-layer="layer1" /><defs
     id="defs1" /><g
     inkscape:label="Lager 1"
     inkscape:groupmode="layer"
     id="layer1"
     transform="translate(-133.7024,-102.18036)"><path
       d="m 176.35244,102.18402 c -0.85376,-0.18077 -9.16134,6.36976 -16.76572,13.2196 -3.10753,2.79918 -8.40315,7.95692 -9.67418,9.42227 -0.84866,0.9784 -0.87776,1.04536 -0.6429,1.48629 0.37242,0.69919 1.73509,2.15731 2.62991,2.81418 0.43812,0.32163 0.89685,0.5864 1.01939,0.58907 0.41555,0.008 5.7017,-5.24627 9.32737,-9.27147 6.1261,-6.80116 12.63624,-14.91912 13.99536,-17.45175 0.35436,-0.66035 0.36705,-0.7539 0.11077,-0.80819 z"
       style="fill:#fd2771;fill-opacity:1;stroke-width:1"
       id="path24"
       inkscape:export-filename="ikon_Design.svg"
       inkscape:export-xdpi="96"
       inkscape:export-ydpi="96" /><path
       d="m 148.47353,126.72214 c -0.14553,-0.0131 -0.52964,0.43216 -1.27303,1.45179 -1.55927,2.13867 -1.62384,2.26462 -1.46283,2.85456 0.17274,0.63288 1.12316,1.65546 1.83449,1.97389 0.29153,0.13051 0.59995,0.24032 0.68534,0.24433 0.33925,0.0151 3.82612,-2.54116 3.81564,-2.79728 -0.003,-0.0612 -0.41241,-0.388 -0.91104,-0.72641 -0.86657,-0.58812 -2.61817,-2.48769 -2.61817,-2.83938 0,-0.1019 -0.0219,-0.15713 -0.0704,-0.1615 z"
       style="fill:#fd2771;fill-opacity:1;stroke-width:1"
       id="path23" /><path
       d="m 142.88622,130.99397 c -1.19999,-0.0129 -2.32408,0.40822 -3.25245,1.22541 -1.05854,0.93176 -1.53019,1.68234 -2.03844,3.24279 -0.51951,1.59504 -1.45682,3.39578 -2.24893,4.32118 -0.34429,0.40223 -0.59662,0.76017 -0.56076,0.79543 0.0359,0.0353 0.36338,-0.039 0.72779,-0.16461 0.40256,-0.13876 0.66256,-0.15931 0.66256,-0.0528 0,0.43225 -1.17682,2.32093 -1.79307,2.87769 -0.37422,0.33808 -0.68051,0.65246 -0.68051,0.6988 0,0.13191 1.09168,0.66743 1.6785,0.82338 0.87564,0.2327 3.44502,0.0266 4.77049,-0.38271 1.89555,-0.58528 3.24365,-1.3801 4.51754,-2.66373 1.93527,-1.95005 3.23183,-5.01309 2.89908,-6.84894 -0.0926,-0.5106 -0.28179,-0.74795 -0.93415,-1.17054 -0.71261,-0.46164 -1.46284,-1.28588 -2.06535,-2.2693 -0.11277,-0.18405 -0.53366,-0.32847 -1.16364,-0.3996 -0.17417,-0.0196 -0.34724,-0.0306 -0.51866,-0.0325 z"
       style="fill:#fd2771;fill-opacity:1;stroke-width:1"
       id="path22" /></g></svg>
