<?xml version="1.0" encoding="UTF-8" standalone="no"?>
<!-- Created with Inkscape (http://www.inkscape.org/) -->

<svg
   width="65.802155mm"
   height="50.561569mm"
   viewBox="0 0 65.802155 50.561569"
   version="1.1"
   id="svg1"
   xml:space="preserve"
   sodipodi:docname="ikoner.svg"
   inkscape:version="1.3.2 (091e20e, 2023-11-25, custom)"
   inkscape:export-filename="Weccs_Hemsida\./assets\ikon_send.svg"
   inkscape:export-xdpi="96"
   inkscape:export-ydpi="96"
   xmlns:inkscape="http://www.inkscape.org/namespaces/inkscape"
   xmlns:sodipodi="http://sodipodi.sourceforge.net/DTD/sodipodi-0.dtd"
   xmlns="http://www.w3.org/2000/svg"
   xmlns:svg="http://www.w3.org/2000/svg"><sodipodi:namedview
     id="namedview1"
     pagecolor="#d6d6d6"
     bordercolor="#000000"
     borderopacity="0.25"
     inkscape:showpageshadow="2"
     inkscape:pageopacity="0.0"
     inkscape:pagecheckerboard="0"
     inkscape:deskcolor="#d1d1d1"
     inkscape:document-units="mm"
     inkscape:zoom="0.86056398"
     inkscape:cx="701.86531"
     inkscape:cy="90.05722"
     inkscape:window-width="1920"
     inkscape:window-height="991"
     inkscape:window-x="-9"
     inkscape:window-y="-9"
     inkscape:window-maximized="1"
     inkscape:current-layer="layer1" /><defs
     id="defs1" /><g
     inkscape:label="Lager 1"
     inkscape:groupmode="layer"
     id="layer1"
     transform="translate(-156.28404,117.91389)"><path
       id="path5"
       style="fill:#fffed0;fill-opacity:1;stroke-width:1"
       d="m 222.08577,-117.91364 c -0.0185,-0.023 -3.35013,1.53121 -7.40356,3.45376 -4.05344,1.92255 -8.60005,4.07673 -10.10332,4.7869 -1.50327,0.71019 -5.49232,2.60443 -8.86453,4.2095 -3.37221,1.60506 -8.62444,4.09969 -11.67163,5.543504 -3.04718,1.443809 -6.96974,3.304652 -8.71678,4.135339 -1.74705,0.830686 -3.67508,1.744328 -4.28452,2.030301 -0.60944,0.28597 -3.83392,1.817144 -7.1655,3.402685 -3.33158,1.585542 -6.41455,3.042575 -6.85125,3.237631 -0.43671,0.195059 -0.76915,0.379433 -0.73871,0.409755 0.0504,0.05016 2.22982,0.543962 4.26576,0.966382 0.44691,0.09273 1.87634,0.392745 3.17645,0.666861 2.57112,0.542084 7.4759,1.57396 10.8403,2.280481 1.16792,0.245259 2.19841,0.400757 2.29,0.345694 0.0916,-0.05506 3.39098,-2.632876 7.332,-5.728472 3.941,-3.095597 7.59764,-5.963542 8.12582,-6.373112 0.52818,-0.409572 3.387,-2.654223 6.35291,-4.988318 21.18994,-16.675891 22.40718,-17.627531 22.11919,-17.290731 -0.39187,0.45828 -19.14921,19.179806 -27.03335,26.981694 l -9.4203,9.321894 4.47093,2.962636 c 2.45902,1.629448 7.19679,4.603328 10.52837,6.608576 3.33158,2.005246 6.08114,3.624307 6.11023,3.59804 0.0727,-0.06571 0.69037,-1.93083 7.11356,-21.487828 3.8438,-11.703422 6.48096,-19.716422 8.19333,-24.894552 0.75242,-2.27521 1.35308,-4.15561 1.3346,-4.17862 z m -14.23519,12.63887 c -0.002,-0.008 -0.0358,0.0155 -0.0952,0.0612 -0.46176,0.35482 -8.26253,6.623252 -13.02035,10.462574 -2.36708,1.910107 -6.97303,5.626635 -10.23548,8.258844 -3.26244,2.63221 -5.96675,4.842335 -6.00952,4.911561 -0.0427,0.06923 0.90655,3.177403 2.10966,6.906946 1.2031,3.729544 2.20296,6.766963 2.2219,6.74997 0.0189,-0.01699 -0.0388,-2.983191 -0.12841,-6.59184 l -0.16304,-6.561251 1.61853,-1.554757 c 0.89019,-0.855147 3.00897,-2.87877 4.70841,-4.496902 1.69944,-1.618131 3.72149,-3.5512 4.49344,-4.295488 0.77196,-0.744287 4.09674,-3.90795 7.38827,-7.030449 5.54337,-5.258708 7.1226,-6.769838 7.11182,-6.820378 z m -23.72474,26.659964 c -0.0146,0.02332 10e-4,2.485711 0.0352,5.471944 0.034,2.986232 0.0762,5.429524 0.0935,5.429524 0.14536,0 7.54466,-5.652916 7.54466,-5.763964 0,-0.134492 -7.61405,-5.232287 -7.67336,-5.137504 z" /></g></svg>
