<?xml version="1.0" encoding="UTF-8" standalone="no"?>
<!-- Created with Inkscape (http://www.inkscape.org/) -->

<svg
   width="68.309593mm"
   height="42.722202mm"
   viewBox="0 0 68.309593 42.722202"
   version="1.1"
   id="svg1"
   xml:space="preserve"
   sodipodi:docname="ikoner.svg"
   inkscape:version="1.3.2 (091e20e, 2023-11-25, custom)"
   xmlns:inkscape="http://www.inkscape.org/namespaces/inkscape"
   xmlns:sodipodi="http://sodipodi.sourceforge.net/DTD/sodipodi-0.dtd"
   xmlns="http://www.w3.org/2000/svg"
   xmlns:svg="http://www.w3.org/2000/svg"><sodipodi:namedview
     id="namedview1"
     pagecolor="#d6d6d6"
     bordercolor="#000000"
     borderopacity="0.25"
     inkscape:showpageshadow="2"
     inkscape:pageopacity="0.0"
     inkscape:pagecheckerboard="0"
     inkscape:deskcolor="#d1d1d1"
     inkscape:document-units="mm"
     inkscape:zoom="0.43028199"
     inkscape:cx="808.77195"
     inkscape:cy="514.7787"
     inkscape:window-width="1920"
     inkscape:window-height="991"
     inkscape:window-x="-9"
     inkscape:window-y="-9"
     inkscape:window-maximized="1"
     inkscape:current-layer="layer1" /><defs
     id="defs1" /><g
     inkscape:label="Lager 1"
     inkscape:groupmode="layer"
     id="layer1"
     transform="translate(-154.6022,47.238881)"><path
       id="path58"
       d="m 183.76328,-47.238417 c -4.63253,-0.01457 -9.26538,0.315264 -13.53918,0.990817 -4.85497,0.767421 -11.06588,2.604009 -12.972,3.835977 -1.05319,0.680696 -2.0075,1.927591 -2.43804,3.185319 -0.31899,0.931804 -0.27008,2.751192 0.0948,3.532275 0.2004,0.428966 0.22618,0.435007 1.85134,0.435007 1.98931,0 4.4174,-0.335284 6.42194,-0.886698 1.59854,-0.439728 4.79448,-1.855138 5.82401,-2.57946 0.59931,-0.421631 0.62191,-0.473184 0.4061,-0.917904 -0.29973,-0.617692 -0.10555,-1.222562 0.54183,-1.687508 0.38732,-0.278197 1.06808,-0.462454 2.62047,-0.709358 2.42321,-0.385412 5.79735,-0.746936 8.25879,-0.885155 l 1.71416,-0.09639 v 1.426442 c 0,1.354929 -0.0209,1.429597 -0.41696,1.489778 -3.12835,0.475318 -3.68786,0.614699 -5.42044,1.352293 -3.09239,1.316492 -5.26201,3.110674 -6.79112,5.615554 -0.76967,1.260817 -8.5454,20.721309 -8.34712,20.890564 0.19116,0.163175 44.11445,0.08801 44.23297,-0.07569 0.12004,-0.165805 -6.72008,-17.763269 -7.66413,-19.717464 -1.35155,-2.797675 -4.00555,-5.231464 -7.19685,-6.599264 -1.42526,-0.610866 -3.66993,-1.217433 -4.95102,-1.338082 l -1.1289,-0.10628 v -1.423662 -1.423661 l 1.57518,0.04696 c 3.05546,0.09135 6.65694,0.493513 9.69644,1.082884 1.06984,0.207453 1.32079,0.322283 1.62945,0.744272 0.33386,0.456432 0.38067,0.989497 0.14695,1.668662 -0.10766,0.312825 1.43196,1.276159 3.5217,2.203771 2.82105,1.25224 4.97344,1.721074 8.7753,1.911809 2.39168,0.119985 2.79976,0.276727 2.81481,1.080104 0.006,0.323905 0.11118,0.448579 0.40827,0.48475 0.49693,0.06044 1.77594,-1.28497 1.69282,-1.780812 -0.0603,-0.359764 -0.76625,-0.52854 -1.13071,-0.270336 -0.14968,0.106043 -0.37281,0.08845 -0.6848,-0.05406 -0.44031,-0.201151 -0.46353,-0.282983 -0.48138,-1.687509 -0.0236,-1.850341 -0.46088,-2.89225 -1.71886,-4.097044 -1.01624,-0.973271 -1.98346,-1.471204 -4.41933,-2.274212 -2.19186,-0.722575 -7.02997,-1.903039 -9.38914,-2.290897 -4.27259,-0.70243 -8.90482,-1.061209 -13.53736,-1.075778 z m 13.48018,8.882128 -0.2986,0.535109 -0.29896,0.535109 1.01163,0.769915 c 1.92304,1.46305 4.90477,2.709029 7.67896,3.208799 0.93599,0.168617 2.41594,0.289075 3.63065,0.29567 l 2.0504,0.01112 0.32031,-0.57311 c 0.17614,-0.315276 0.28924,-0.599681 0.25121,-0.63212 -0.0381,-0.03244 -1.02147,-0.125806 -2.18541,-0.207309 -2.42195,-0.169588 -3.40686,-0.335836 -5.35929,-0.904 -2.06509,-0.600953 -3.84842,-1.338321 -5.40886,-2.237138 z m -27.05591,0.115858 c -0.19305,-0.0083 -0.55587,0.198653 -1.51762,0.748287 -3.29014,1.880283 -7.05855,2.915045 -11.41747,3.135578 -0.81539,0.04125 -1.5053,0.07856 -1.53282,0.0828 -0.0275,0.0043 0.12534,0.301621 0.33986,0.660545 l 0.39017,0.652511 2.53252,-0.08218 c 4.34214,-0.141013 7.24311,-1.065753 10.73266,-3.421051 1.001,-0.675629 1.12725,-0.945396 0.72932,-1.556821 -0.0861,-0.132249 -0.14078,-0.214697 -0.25662,-0.219667 z m 13.3792,1.171864 c 2.18024,-0.0087 2.56648,0.03453 4.06425,0.453545 2.91233,0.814731 5.61102,2.69505 7.0539,4.915154 1.47127,2.263798 1.94715,5.232233 1.2306,7.673807 -0.64136,2.185386 -1.51445,3.50782 -3.35375,5.078901 -1.293,1.104437 -1.89405,1.485354 -3.16446,2.006349 -0.86254,0.35372 -2.06866,0.747654 -2.68019,0.875268 -5.58875,1.166262 -11.44169,-1.081386 -14.05241,-5.396196 -1.1358,-1.877151 -1.48288,-3.051738 -1.48288,-5.018036 0,-2.852801 1.13715,-5.231545 3.51663,-7.355585 1.52594,-1.362127 2.80153,-2.070161 4.9463,-2.746295 1.38573,-0.436828 1.71582,-0.478064 3.92201,-0.486912 z m -0.058,0.772695 c -1.64943,0.009 -3.27105,0.301957 -4.64552,0.888243 -4.17558,1.781084 -6.50773,4.965483 -6.50773,8.884909 0,3.326771 1.86779,6.266201 5.14068,8.089969 1.21296,0.675903 2.85788,1.261059 4.12505,1.467224 0.2548,0.04149 1.38059,0.05676 2.50174,0.03398 1.63931,-0.0333 2.30695,-0.122632 3.41022,-0.45509 0.75454,-0.227373 1.44212,-0.473124 1.52776,-0.546232 0.0856,-0.0731 -0.21042,-0.841657 -0.65765,-1.707898 -0.59881,-1.159808 -0.76751,-1.648022 -0.64064,-1.851872 0.0948,-0.152252 0.27576,-0.276824 0.40212,-0.276824 0.12637,0 0.85097,0.533873 1.61028,1.186385 0.75932,0.652505 1.48544,1.186385 1.61391,1.186385 0.33581,0 1.79892,-1.641695 2.55204,-2.863699 2.72507,-4.421447 0.79452,-9.99058 -4.3965,-12.682883 -1.55378,-0.805855 -3.43874,-1.256902 -5.32779,-1.339008 -0.23613,-0.01026 -0.47233,-0.01488 -0.70797,-0.0136 z m 0.12596,1.080723 c 0.1901,0 0.56536,0.147484 0.83392,0.3278 0.63945,0.429374 0.67906,1.280207 0.0764,1.640547 -0.22654,0.135436 -0.58321,0.246236 -0.79267,0.246236 -0.20944,0 -0.56614,-0.1108 -0.79264,-0.246236 -0.81982,-0.490157 -0.3129,-1.968347 0.67502,-1.968347 z m 3.67987,0.801118 c 0.33688,0.0053 0.66529,0.09907 0.85636,0.279294 0.40705,0.383959 0.39006,1.17903 -0.0322,1.505226 -0.44982,0.34746 -1.38125,0.332952 -1.76339,-0.02749 -0.40705,-0.383957 -0.39004,-1.179026 0.0322,-1.505225 0.22491,-0.173737 0.57014,-0.257049 0.90703,-0.251798 z m 29.59168,0.02781 c -0.30462,0.0033 -0.67993,0.222444 -1.15569,0.663016 -0.85871,0.795206 -0.90134,0.906997 -0.48211,1.264859 0.36093,0.308084 0.65649,0.184087 1.65118,-0.692058 0.60321,-0.531334 0.7006,-0.698798 0.53678,-0.921919 -0.14025,-0.190972 -0.30108,-0.295491 -0.49008,-0.311735 -0.0197,-0.0017 -0.0397,-0.0024 -0.0601,-0.0021 z m -37.17474,0.0207 c 0.0561,-0.0022 0.11645,4.41e-4 0.17882,0.0074 0.37435,0.04186 0.83155,0.239723 1.01307,0.471773 0.25985,0.332193 0.1399,1.045643 -0.22876,1.360326 -0.76717,0.654878 -2.03845,0.212556 -2.03845,-0.70936 0,-0.562212 0.31755,-0.944892 0.92041,-1.108219 0.0465,-0.01261 0.0986,-0.01971 0.15491,-0.02193 z m 10.34721,1.596367 c 0.51509,0 1.22626,0.658688 1.22626,1.135715 0,0.166225 -0.20442,0.476963 -0.4546,0.690514 -0.25017,0.213549 -0.62949,0.388355 -0.84259,0.388355 -0.49998,0 -1.2972,-0.680515 -1.2972,-1.107292 0,-0.452454 0.80915,-1.107292 1.36813,-1.107292 z m 28.83956,0.277132 c -0.34102,-0.0066 -0.811,0.21148 -1.4141,0.655601 -0.5646,0.415765 -0.68939,0.599793 -0.58961,0.868162 0.17198,0.46253 0.55723,0.428375 1.59761,-0.141501 1.00033,-0.54793 1.17344,-0.793312 0.83646,-1.186694 -0.079,-0.09215 -0.17618,-0.151862 -0.29208,-0.178884 -0.0435,-0.01013 -0.0896,-0.01573 -0.13828,-0.01668 z m -42.11525,0.282384 c 1.07624,0 1.63406,0.942748 1.00875,1.70481 -0.40563,0.494325 -1.61185,0.494325 -2.01747,0 -0.62532,-0.762062 -0.0675,-1.70481 1.00872,-1.70481 z m 7.21604,0.402877 c 1.3465,0.04292 2.63237,0.456611 3.6028,1.183913 2.13453,1.599787 2.84006,4.029343 1.77713,6.119457 -0.47618,0.936353 -1.90364,2.18222 -3.04865,2.660406 -2.35187,0.982207 -5.59623,0.431689 -7.24102,-1.228402 -2.10358,-2.123146 -1.96574,-5.354635 0.30874,-7.238799 1.00782,-0.834878 1.83628,-1.19592 3.24374,-1.413776 0.45287,-0.0701 0.90844,-0.09712 1.35726,-0.08279 z m -0.38111,0.967027 c -2.42903,0.03156 -4.65702,1.683505 -4.92495,3.899312 -0.25193,2.083652 1.43867,4.010698 3.97087,4.526181 2.35855,0.480131 5.19105,-0.923934 5.80773,-2.878836 0.30376,-0.962954 0.14083,-2.434245 -0.36882,-3.331146 -0.53175,-0.935805 -1.74622,-1.729848 -3.16591,-2.069685 -0.36049,-0.08629 -0.72345,-0.133044 -1.0833,-0.143973 -0.0787,-0.0024 -0.15727,-0.0029 -0.23562,-0.0019 z m 36.9221,0.523677 c -0.27869,0.0075 -0.66829,0.120186 -1.17378,0.337996 -1.0073,0.434042 -1.32794,0.819986 -0.94938,1.143132 0.39849,0.340141 2.6563,-0.498635 2.6563,-0.986801 0,-0.301884 -0.1379,-0.465356 -0.42021,-0.491237 -0.0354,-0.0032 -0.0731,-0.0042 -0.11293,-0.0031 z m -28.55726,0.394844 c 0.51508,0 1.22627,0.658688 1.22627,1.135716 0,0.166223 -0.20444,0.476962 -0.45461,0.690512 -0.25017,0.213551 -0.62947,0.388356 -0.84259,0.388356 -0.49998,0 -1.29721,-0.680514 -1.29721,-1.107292 0,-0.452456 0.80917,-1.107292 1.36814,-1.107292 z m -16.82307,0.717083 c 0.99139,0 1.52006,1.162824 0.84441,1.857742 -0.29677,0.305245 -1.5225,0.246264 -1.87956,-0.09052 -0.68079,-0.642127 -0.0219,-1.767218 1.03515,-1.767218 z m 46.42707,1.23798 c -0.0661,0.0015 -0.1381,0.007 -0.21645,0.01638 -0.10438,0.01248 -0.22042,0.03189 -0.34746,0.05808 -0.12719,0.02623 -0.26575,0.05933 -0.4166,0.09917 -0.15403,0.04068 -0.29495,0.08135 -0.42202,0.121728 -0.12704,0.04038 -0.24112,0.08062 -0.34168,0.12111 -0.60376,0.24319 -0.7341,0.492214 -0.44337,0.791232 0.0454,0.04674 0.0934,0.08436 0.14659,0.113387 h 3.5e-4 c 0.0532,0.02894 0.11118,0.04937 0.17663,0.06148 h 3.6e-4 c 0.131,0.02419 0.2914,0.01564 0.49912,-0.02255 0.66792,-0.12283 1.1356,-0.239179 1.44307,-0.365802 0.0768,-0.03162 0.14383,-0.06418 0.20124,-0.09732 0.11481,-0.06632 0.19217,-0.136422 0.23706,-0.211943 0.0224,-0.03771 0.0369,-0.07694 0.0437,-0.117711 0.0139,-0.08335 0.0173,-0.157169 0.0105,-0.22183 -1.8e-4,-0.0015 -5.4e-4,-0.0031 -7.1e-4,-0.0047 -0.0289,-0.238146 -0.20795,-0.349073 -0.57005,-0.340777 z m -46.36192,2.15372 c 0.23217,0.01887 0.46585,0.101275 0.68588,0.249018 0.6107,0.410047 0.6696,1.119644 0.13103,1.579373 -0.50086,0.427524 -1.21823,0.398607 -1.76918,-0.07168 -0.53655,-0.457991 -0.57744,-0.876516 -0.1303,-1.327577 0.25006,-0.252256 0.54538,-0.39582 0.85166,-0.426975 0.0766,-0.0078 0.15352,-0.0084 0.23091,-0.0021 z m 46.87334,0.355607 c -0.11668,0.0014 -0.257,0.0067 -0.42637,0.01452 -0.48257,0.02203 -0.87031,0.06522 -1.16581,0.130687 -0.19689,0.04365 -0.35326,0.09742 -0.4698,0.161274 -0.17486,0.09588 -0.26024,0.214889 -0.26024,0.358387 0,0.168908 0.10426,0.346726 0.23164,0.395153 0.0394,0.01495 0.10637,0.02537 0.19435,0.03182 h 3.8e-4 c 0.0879,0.0064 0.19684,0.0089 0.31887,0.008 h 3.5e-4 c 0.24425,-0.0018 0.54256,-0.01682 0.83682,-0.04078 5.2e-4,-4.2e-5 6.9e-4,4.2e-5 0.001,0 0.29391,-0.02397 0.58425,-0.05687 0.81292,-0.09361 0.11446,-0.01839 0.2138,-0.03795 0.29028,-0.05777 0.0764,-0.01982 0.13049,-0.04016 0.15454,-0.06025 0.0418,-0.03497 0.0731,-0.10776 0.0901,-0.197112 4.5e-4,-0.0023 6.6e-4,-0.0044 0.001,-0.0068 0.0163,-0.09065 0.0184,-0.197487 0.001,-0.299378 -0.0213,-0.129091 -0.0459,-0.213389 -0.11469,-0.266318 -3.1e-4,-2.4e-4 -7e-4,-7.18e-4 -9.9e-4,-9.38e-4 -0.0697,-0.05287 -0.18449,-0.07405 -0.38728,-0.07693 -0.0337,-4.49e-4 -0.0701,-4.7e-4 -0.10895,0 z m -0.47161,2.447844 c -0.10942,4.7e-5 -0.22628,0.0024 -0.35108,0.0071 -0.4334,0.0164 -0.71305,0.02934 -0.8969,0.05963 -0.004,7.17e-4 -0.009,0.0014 -0.0134,0.0021 -0.0595,0.01033 -0.10918,0.02262 -0.14984,0.03769 -0.0829,0.03076 -0.13103,0.07351 -0.16178,0.133777 -0.0308,0.06048 -0.0439,0.138903 -0.058,0.24222 -0.0239,0.176615 -0.0105,0.29879 0.0897,0.386811 0.0668,0.0586 0.17186,0.102154 0.33009,0.136558 h 3.8e-4 c 0.23756,0.05161 0.59478,0.08287 1.12056,0.114004 0.2403,0.01423 0.43344,0.02133 0.58996,0.01792 2.8e-4,-6e-6 4.6e-4,6e-6 7e-4,0 0.31231,-0.0069 0.47924,-0.0553 0.58671,-0.169925 h 3.7e-4 c 6.6e-4,-7.18e-4 9.9e-4,-0.0017 0.002,-0.0025 0.0526,-0.05704 0.0911,-0.130337 0.1256,-0.222757 0.0228,-0.06143 0.0375,-0.118534 0.045,-0.171778 3.4e-4,-0.0025 6.9e-4,-0.0049 0.001,-0.0074 0.006,-0.05191 0.006,-0.100015 -0.004,-0.144282 -3.2e-4,-0.0017 -7e-4,-0.0033 -9.9e-4,-0.0049 -0.009,-0.04384 -0.0267,-0.08369 -0.0518,-0.120183 -0.001,-0.0023 -0.004,-0.0045 -0.005,-0.0068 -0.0533,-0.07366 -0.14023,-0.132492 -0.26278,-0.177031 -0.002,-7.18e-4 -0.004,-0.0014 -0.006,-0.0021 -0.12395,-0.04415 -0.28357,-0.07415 -0.48138,-0.09114 -0.006,-4.85e-4 -0.0117,-7.78e-4 -0.0171,-0.0013 -0.12858,-0.01045 -0.27257,-0.01582 -0.43323,-0.01576 z m -44.58767,0.132234 c 0.51507,0 1.22661,0.659003 1.22661,1.136025 0,0.166223 -0.20478,0.47697 -0.45495,0.690512 -0.25019,0.213551 -0.62914,0.388047 -0.84225,0.388047 -0.49997,0 -1.29719,-0.680516 -1.29719,-1.107292 0,-0.452455 0.8088,-1.107292 1.36778,-1.107292 z m 3.01751,1.94981 c 0.51507,0 1.22626,0.65869 1.22626,1.135716 0,0.166224 -0.20444,0.476962 -0.4546,0.690513 -0.25018,0.21355 -0.6295,0.388356 -0.84261,0.388356 -0.49994,0 -1.2972,-0.680514 -1.2972,-1.107293 0,-0.452455 0.80916,-1.107292 1.36815,-1.107292 z m 40.32435,0.361476 c -0.0519,1.1e-5 -0.0999,3.39e-4 -0.14441,0.0013 -0.53359,0.01 -0.55306,0.08684 -0.55306,0.371672 0,0.317608 0.13819,0.426425 0.74126,0.584541 1.10196,0.288912 2.02726,0.207278 2.08587,-0.184136 0.0883,-0.58932 -0.21333,-0.737947 -1.55091,-0.764971 -0.2328,-0.0049 -0.4231,-0.0084 -0.57875,-0.0084 z m -0.91969,2.130859 c -0.26646,2.93e-4 -0.42665,0.07516 -0.49368,0.224301 -0.18972,0.421994 0.072,0.670826 1.05215,1.000702 1.17333,0.394901 1.31898,0.405377 1.60197,0.114313 0.39339,-0.404627 0.12751,-0.743277 -0.82633,-1.051989 -0.55851,-0.18077 -0.97973,-0.276118 -1.2791,-0.286401 -0.0186,-6.57e-4 -0.0373,-9.38e-4 -0.0549,-9.38e-4 z m -1.12275,2.100271 c -0.0478,-0.0015 -0.0901,0.0022 -0.12957,0.01082 -0.07,0.01526 -0.13029,0.04615 -0.19256,0.09022 -0.45337,0.321176 -0.26436,0.650519 0.64788,1.1283 1.04465,0.547104 1.73811,0.53661 1.81515,-0.02749 0.0479,-0.351489 -0.0858,-0.459909 -1.05688,-0.856112 -0.57252,-0.233589 -0.87713,-0.338981 -1.08402,-0.34572 z m -1.52487,1.871336 c -0.0152,5.91e-4 -0.0296,0.002 -0.0437,0.0043 -0.13604,0.0225 -0.23091,0.125218 -0.33915,0.297832 -0.18315,0.292121 -0.10309,0.415421 0.66779,1.0282 0.8981,0.713908 1.32346,0.839572 1.71379,0.506376 0.39364,-0.336004 0.24266,-0.577806 -0.76731,-1.228712 -0.66324,-0.42745 -1.00445,-0.616888 -1.23132,-0.608021 z m -1.87557,1.731381 c -0.44105,0.0172 -0.46962,0.591514 0.29823,1.449922 0.36582,0.40895 0.78058,0.743345 0.9215,0.743345 0.24376,0 0.83863,-0.408448 0.83863,-0.575892 0,-0.04343 -0.35001,-0.433296 -0.77745,-0.865999 -0.50473,-0.510945 -0.94737,-0.739599 -1.23677,-0.751376 -0.0151,-5.99e-4 -0.03,-5.55e-4 -0.0442,0 z m -2.01024,1.301624 c -0.009,2.23e-4 -0.0176,7.78e-4 -0.0264,0.0015 -0.0943,0.0083 -0.1873,0.04779 -0.28341,0.115858 -0.34682,0.245704 -0.32293,0.405194 0.20776,1.3782458 0.40948,0.7508 0.51382,0.835821 0.9711,0.790922 0.70972,-0.06965 0.74575,-0.550402 0.10859,-1.4508488 -0.41349,-0.584352 -0.70284,-0.842655 -0.97759,-0.835721 z m -17.13543,0.129142 c -3.24449,-10e-4 -7.24914,0.0028 -12.16416,0.01082 l -24.7279,0.03955 -0.0521,2.0440418 c -0.039,1.529015 0.008,2.07637 0.18531,2.172567 0.13059,0.07072 2.05121,0.130109 4.26804,0.131306 l 4.03058,0.0025 v 1.094281 c 0,0.727276 0.0777,1.120687 0.23164,1.173718 0.12742,0.04389 1.66405,0.0855 3.41492,0.09238 3.76462,0.01477 3.76603,0.01431 3.76603,-1.422426 v -0.937994 h 8.98774 8.98775 v 0.996687 c 0,0.564191 0.0964,1.078919 0.22223,1.186385 0.23466,0.200302 6.31942,0.283176 6.89717,0.09392 0.22804,-0.0747 0.29317,-0.338035 0.29317,-1.186385 v -1.090609 h 4.03965 c 2.89502,0 4.10287,-0.05367 4.26224,-0.189698 0.12229,-0.104398 0.22259,-0.488125 0.22259,-0.852713 0,-0.647617 0.0159,-0.664605 0.6913,-0.731913 0.52936,-0.05275 0.76059,0.0046 0.98775,0.244073 0.2267,0.23893 0.41868,0.286441 0.81401,0.201748 0.46199,-0.09898 0.50676,-0.164867 0.41695,-0.616982 -0.0553,-0.278413 -0.23355,-0.773309 -0.39596,-1.099569 -0.35384,-0.7107438 -0.94552,-0.8068978 -1.21685,-0.1977298 -0.13431,0.3015258 -0.30953,0.3954608 -0.73692,0.3954608 -0.52367,0 -0.56038,-0.039 -0.56318,-0.5931918 -9.9e-4,-0.326253 -0.0694,-0.682164 -0.15056,-0.791232 -0.088,-0.118252 -2.97796,-0.165951 -12.71142,-0.168998 z"
       style="fill:#fffed0;fill-opacity:1;stroke-width:1" /></g></svg>
