<?xml version="1.0" encoding="UTF-8" standalone="no"?>
<!-- Created with Inkscape (http://www.inkscape.org/) -->

<svg
   width="60.526363mm"
   height="43.23423mm"
   viewBox="0 0 60.526363 43.23423"
   version="1.1"
   id="svg1"
   xml:space="preserve"
   sodipodi:docname="Namnlöst dokument 1"
   xmlns:inkscape="http://www.inkscape.org/namespaces/inkscape"
   xmlns:sodipodi="http://sodipodi.sourceforge.net/DTD/sodipodi-0.dtd"
   xmlns="http://www.w3.org/2000/svg"
   xmlns:svg="http://www.w3.org/2000/svg"><sodipodi:namedview
     id="namedview1"
     pagecolor="#d6d6d6"
     bordercolor="#000000"
     borderopacity="0.25"
     inkscape:showpageshadow="2"
     inkscape:pageopacity="0.0"
     inkscape:pagecheckerboard="0"
     inkscape:deskcolor="#d1d1d1"
     inkscape:document-units="mm"
     inkscape:zoom="0.86056397"
     inkscape:cx="610.06505"
     inkscape:cy="387.53656"
     inkscape:window-width="1920"
     inkscape:window-height="991"
     inkscape:window-x="-9"
     inkscape:window-y="-9"
     inkscape:window-maximized="1"
     inkscape:current-layer="layer1" /><defs
     id="defs1" /><g
     inkscape:label="Lager 1"
     inkscape:groupmode="layer"
     id="layer1"
     transform="translate(-189.75352,-104.08805)"><path
       id="path37"
       style="fill:#377eff;fill-opacity:1;stroke-width:1"
       d="m 201.9217,104.08811 c -1.50876,-0.003 -2.98025,0.0911 -4.32179,0.40115 -3.33062,0.76993 -2.93739,3.97921 -2.93739,6.65898 v 19.65788 c 0,1.69462 -0.84508,6.79773 0.54988,7.94055 0.85918,0.70388 2.48678,0.4197 3.51727,0.4197 h 8.81215 26.66241 c 3.50096,0 8.64745,0.96229 11.96534,-0.1474 2.03444,-0.68044 1.13992,-5.80005 1.13992,-7.535 V 112.278 c 0,-2.20592 0.61619,-5.53624 -1.37955,-7.08396 -1.23118,-0.95479 -2.80651,-0.82438 -4.26927,-0.82438 h -8.1343 -24.17692 c -1.83588,0 -3.87884,-0.17675 -5.91008,-0.25022 -0.50781,-0.0184 -1.01476,-0.0302 -1.51767,-0.0313 z m 24.00746,6.16162 c 1.49158,0.0942 1.19919,2.23359 0.72243,3.38399 -2.04711,4.93972 -4.33724,9.77813 -6.45642,14.68692 -0.56318,1.30454 -1.34672,4.50614 -2.94136,4.81782 -2.75537,0.53858 -1.46801,-2.96965 -0.96338,-4.13996 2.0181,-4.6803 4.05941,-9.35307 6.13293,-14.00906 0.5578,-1.25246 1.29323,-4.24967 2.75248,-4.64572 0.29056,-0.0788 0.54024,-0.10745 0.75332,-0.094 z m 4.23617,3.89018 c 0.72294,0.0216 1.41379,0.6081 1.93163,1.0746 1.81111,1.63152 3.63351,3.25334 5.41933,4.9127 0.80575,0.74867 1.70412,1.58938 0.96472,2.72908 -1.41437,2.18011 -4.59949,4.07959 -6.61,5.72384 -0.73831,0.60384 -1.85491,1.47936 -2.83941,0.80849 -0.88452,-0.60274 -0.42984,-1.76996 0.16151,-2.37957 1.64281,-1.69347 3.96904,-3.73923 6.06719,-4.81032 v -0.45189 c -2.05641,-1.06683 -4.24481,-3.32958 -5.82313,-5.03539 -0.62808,-0.67881 -0.97341,-1.80366 0,-2.37957 0.24298,-0.14373 0.48718,-0.1988 0.72816,-0.19197 z m -18.90632,0.0393 c 0.72077,-0.0366 1.39278,0.29704 1.39278,1.22641 0,1.00434 -1.05018,1.67023 -1.70479,2.27542 -1.56934,1.45086 -3.44623,2.80193 -4.74456,4.49964 2.07454,1.07479 4.41877,3.16036 6.04909,4.84429 0.64379,0.66494 1.0052,1.80986 0.0181,2.37912 -0.9854,0.56829 -1.96425,-0.26812 -2.6779,-0.86806 -1.79676,-1.51049 -3.62892,-2.97816 -5.42286,-4.49214 -0.7494,-0.63247 -1.7987,-1.41696 -1.40955,-2.53755 0.32123,-0.9251 1.39033,-1.61377 2.08741,-2.24628 1.69511,-1.5381 3.3385,-3.32582 5.19691,-4.66381 0.33293,-0.23971 0.78292,-0.39509 1.21538,-0.41704 z"
       inkscape:export-filename="ikon_programmering.svg"
       inkscape:export-xdpi="96"
       inkscape:export-ydpi="96" /><path
       d="m 198.47078,140.80038 c -1.98414,-0.008 -3.93515,0.0901 -5.77237,0.42145 -2.30226,0.41525 -2.94179,1.5279 -2.93739,3.73617 0.002,0.66563 -0.11685,1.60017 0.5234,2.0274 0.83962,0.56027 2.57562,0.23212 3.54374,0.23212 h 8.81216 33.66694 9.71596 c 0.96106,0 2.90797,0.36458 3.70483,-0.26655 1.04675,-0.82905 0.46128,-4.43097 -0.5662,-5.06187 -2.49414,-1.53144 -6.66517,-0.7723 -9.4653,-0.7723 h -31.40741 c -3.11293,0 -6.51141,-0.30402 -9.81836,-0.31642 z"
       style="fill:#377eff;fill-opacity:1;stroke-width:1"
       id="path43" /></g></svg>
