<?xml version="1.0" encoding="UTF-8" standalone="no"?>
<!-- Created with Inkscape (http://www.inkscape.org/) -->

<svg
   width="297mm"
   height="210mm"
   viewBox="0 0 297 210"
   version="1.1"
   id="svg1"
   xml:space="preserve"
   inkscape:export-filename="sticky_scroll.svg"
   inkscape:export-xdpi="96"
   inkscape:export-ydpi="96"
   inkscape:version="1.3.2 (091e20e, 2023-11-25, custom)"
   sodipodi:docname="sticky_scrollTablet2.svg"
   xmlns:inkscape="http://www.inkscape.org/namespaces/inkscape"
   xmlns:sodipodi="http://sodipodi.sourceforge.net/DTD/sodipodi-0.dtd"
   xmlns="http://www.w3.org/2000/svg"
   xmlns:svg="http://www.w3.org/2000/svg"><sodipodi:namedview
     id="namedview1"
     pagecolor="#ffffff"
     bordercolor="#000000"
     borderopacity="0.25"
     inkscape:showpageshadow="2"
     inkscape:pageopacity="0.0"
     inkscape:pagecheckerboard="0"
     inkscape:deskcolor="#d1d1d1"
     inkscape:document-units="mm"
     inkscape:zoom="0.69219276"
     inkscape:cx="534.53318"
     inkscape:cy="341.66783"
     inkscape:window-width="1920"
     inkscape:window-height="991"
     inkscape:window-x="-9"
     inkscape:window-y="-9"
     inkscape:window-maximized="1"
     inkscape:current-layer="layer1" /><defs
     id="defs1" /><g
     inkscape:label="Lager 1"
     inkscape:groupmode="layer"
     id="layer1"><path
       d="M -1.6216064,0 V 211.36229 H 297.85314 V 0 Z M 148.11602,48.063216 c 65.20705,0 130.41432,0.101541 130.98271,0.304374 1.1237,0.401011 2.1017,1.225232 2.73781,2.307353 l 0.56328,0.957564 v 66.735983 66.73546 l -0.56328,0.95859 c -0.63611,1.08213 -1.61411,1.90582 -2.73781,2.30684 -1.13676,0.40568 -260.829673,0.40568 -261.966442,0 -1.123686,-0.40102 -2.10119,-1.22471 -2.737301,-2.30684 l -0.563273,-0.95859 V 118.36849 51.632507 l 0.563273,-0.957564 c 0.636111,-1.082121 1.613615,-1.906342 2.737301,-2.307353 0.568385,-0.202857 65.776701,-0.304374 130.983732,-0.304374 z"
       style="opacity:1;fill:#276d2f;stroke-width:0;fill-opacity:1"
       id="path3" /></g></svg>
