<?xml version="1.0" encoding="UTF-8" standalone="no"?>
<!-- Created with Inkscape (http://www.inkscape.org/) -->

<svg
   width="126.34526mm"
   height="168.46103mm"
   viewBox="0 0 126.34526 168.46103"
   version="1.1"
   id="svg1"
   xml:space="preserve"
   inkscape:export-filename="sticky_scroll.svg"
   inkscape:export-xdpi="96"
   inkscape:export-ydpi="96"
   sodipodi:docname="sticky_scrollTablet.svg"
   xmlns:inkscape="http://www.inkscape.org/namespaces/inkscape"
   xmlns:sodipodi="http://sodipodi.sourceforge.net/DTD/sodipodi-0.dtd"
   xmlns="http://www.w3.org/2000/svg"
   xmlns:svg="http://www.w3.org/2000/svg"><sodipodi:namedview
     id="namedview1"
     pagecolor="#ffffff"
     bordercolor="#000000"
     borderopacity="0.25"
     inkscape:showpageshadow="2"
     inkscape:pageopacity="0.0"
     inkscape:pagecheckerboard="0"
     inkscape:deskcolor="#d1d1d1"
     inkscape:document-units="mm"
     inkscape:zoom="0.4894542"
     inkscape:cx="306.46382"
     inkscape:cy="534.26858"
     inkscape:window-width="1920"
     inkscape:window-height="991"
     inkscape:window-x="-9"
     inkscape:window-y="-9"
     inkscape:window-maximized="1"
     inkscape:current-layer="layer1" /><defs
     id="defs1" /><g
     inkscape:label="Lager 1"
     inkscape:groupmode="layer"
     id="layer1"
     transform="translate(388.11635,-197.1487)"><path
       d="M -388.11636,197.14869 V 365.60972 H -261.7711 V 197.14869 Z m 63.17289,51.98132 c 26.93484,0 53.86993,0.0532 54.1047,0.15917 0.46417,0.20958 0.86793,0.64008 1.13068,1.20561 l 0.23255,0.50023 v 34.87694 34.87642 l -0.23255,0.50075 c -0.26275,0.56552 -0.66651,0.99604 -1.13068,1.20561 -0.46954,0.21201 -107.74038,0.21201 -108.20993,0 -0.46418,-0.20957 -0.86792,-0.64009 -1.13068,-1.20561 l -0.23254,-0.50075 v -34.87642 -34.87694 l 0.23254,-0.50023 c 0.26276,-0.56553 0.6665,-0.99603 1.13068,-1.20561 0.23476,-0.10596 27.17038,-0.15917 54.10523,-0.15917 z"
       style="opacity:1;fill:#27242f;stroke-width:0"
       id="path4" /></g></svg>
