<?xml version="1.0" encoding="UTF-8" standalone="no"?>
<!-- Created with Inkscape (http://www.inkscape.org/) -->

<svg
   width="271.56793mm"
   height="203.67542mm"
   viewBox="0 0 271.56793 203.67542"
   version="1.1"
   id="svg1"
   xml:space="preserve"
   inkscape:export-filename="sticky_scroll.svg"
   inkscape:export-xdpi="96"
   inkscape:export-ydpi="96"
   sodipodi:docname="sticky_scrollTablet.svg"
   xmlns:inkscape="http://www.inkscape.org/namespaces/inkscape"
   xmlns:sodipodi="http://sodipodi.sourceforge.net/DTD/sodipodi-0.dtd"
   xmlns="http://www.w3.org/2000/svg"
   xmlns:svg="http://www.w3.org/2000/svg"><sodipodi:namedview
     id="namedview1"
     pagecolor="#ffffff"
     bordercolor="#000000"
     borderopacity="0.25"
     inkscape:showpageshadow="2"
     inkscape:pageopacity="0.0"
     inkscape:pagecheckerboard="0"
     inkscape:deskcolor="#d1d1d1"
     inkscape:document-units="mm"
     inkscape:zoom="0.4894542"
     inkscape:cx="306.46382"
     inkscape:cy="534.26858"
     inkscape:window-width="1920"
     inkscape:window-height="991"
     inkscape:window-x="-9"
     inkscape:window-y="-9"
     inkscape:window-maximized="1"
     inkscape:current-layer="layer1" /><defs
     id="defs1" /><g
     inkscape:label="Lager 1"
     inkscape:groupmode="layer"
     id="layer1"
     transform="translate(-1.436088,0.76429446)"><path
       d="M 1.4360881,-0.76429443 V 202.91113 H 273.00401 V -0.76429443 Z M 137.22005,58.209884 c 44.85003,0 89.70071,0.08211 90.09166,0.245463 0.77287,0.322961 1.44558,0.986778 1.88309,1.858284 l 0.38705,0.771013 v 53.747106 53.74659 l -0.38705,0.77205 c -0.43751,0.87151 -1.11022,1.53479 -1.88309,1.85776 -0.78188,0.32672 -179.401438,0.32672 -180.183321,0 -0.772882,-0.32297 -1.445047,-0.98625 -1.882572,-1.85776 l -0.387573,-0.77205 V 114.83175 61.084644 l 0.387573,-0.771013 c 0.437525,-0.871506 1.10969,-1.535323 1.882572,-1.858284 0.390942,-0.163379 45.241629,-0.245463 90.091661,-0.245463 z"
       style="opacity:1;fill:#27242f;stroke-width:0"
       id="path3" /></g></svg>
