<?xml version="1.0" encoding="UTF-8" standalone="no"?>
<!-- Created with Inkscape (http://www.inkscape.org/) -->

<svg
   width="319.55209mm"
   height="204.11571mm"
   viewBox="0 0 319.55209 204.11571"
   version="1.1"
   id="svg1"
   xml:space="preserve"
   xmlns="http://www.w3.org/2000/svg"
   xmlns:svg="http://www.w3.org/2000/svg"><defs
     id="defs1" /><g
     id="layer1"
     transform="translate(0.31684183,-0.44796936)"><path
       id="rect1"
       style="opacity:1;fill:#27242f;fill-opacity:1;stroke-width:0"
       d="M -0.31684181,0.44796936 V 204.56367 H 319.23523 V 0.44796936 Z M 176.69457,44.092851 c 54.17704,0 108.35419,0.08469 108.82643,0.253214 0.93362,0.333178 1.74629,1.017603 2.2748,1.916679 l 0.46767,0.795817 v 55.447259 55.44674 l -0.46767,0.79634 c -0.52851,0.89908 -1.34118,1.5835 -2.2748,1.91668 -0.94447,0.33706 -216.708889,0.33706 -217.653373,0 -0.933608,-0.33318 -1.745765,-1.0176 -2.27428,-1.91668 l -0.468188,-0.79634 V 102.50582 47.058561 l 0.468188,-0.795817 c 0.528515,-0.899076 1.340672,-1.583501 2.27428,-1.916679 0.472243,-0.168541 54.649903,-0.253214 108.826943,-0.253214 z" /></g></svg>
