<?xml version="1.0" encoding="UTF-8" standalone="no"?>
<!-- Created with Inkscape (http://www.inkscape.org/) -->

<svg
   width="250"
   height="190"
   viewBox="0 0 66.145835 50.270832"
   version="1.1"
   id="svg1"
   inkscape:version="1.3.2 (091e20e, 2023-11-25, custom)"
   sodipodi:docname="WECCS_logga.svg"
   xmlns:inkscape="http://www.inkscape.org/namespaces/inkscape"
   xmlns:sodipodi="http://sodipodi.sourceforge.net/DTD/sodipodi-0.dtd"
   xmlns:xlink="http://www.w3.org/1999/xlink"
   xmlns="http://www.w3.org/2000/svg"
   xmlns:svg="http://www.w3.org/2000/svg">
  <sodipodi:namedview
     id="namedview1"
     pagecolor="#ffffff"
     bordercolor="#000000"
     borderopacity="0.25"
     inkscape:showpageshadow="2"
     inkscape:pageopacity="0.0"
     inkscape:pagecheckerboard="0"
     inkscape:deskcolor="#d1d1d1"
     inkscape:document-units="mm"
     inkscape:zoom="1.9578168"
     inkscape:cx="108.02849"
     inkscape:cy="106.24079"
     inkscape:window-width="1920"
     inkscape:window-height="991"
     inkscape:window-x="-9"
     inkscape:window-y="-9"
     inkscape:window-maximized="1"
     inkscape:current-layer="layer1" />
  <defs
     id="defs1">
    <linearGradient
       inkscape:collect="always"
       xlink:href="#linearGradient21"
       id="linearGradient9"
       x1="46.757744"
       y1="1.2879221"
       x2="46.757744"
       y2="40.721367"
       gradientUnits="userSpaceOnUse"
       gradientTransform="matrix(0.71925064,0,0,0.71925064,110.48693,29.348523)" />
    <linearGradient
       id="linearGradient21"
       inkscape:collect="always">
      <stop
         style="stop-color:#24242f;stop-opacity:1;"
         offset="0"
         id="stop20" />
      <stop
         style="stop-color:#727796;stop-opacity:1"
         offset="1"
         id="stop21" />
    </linearGradient>
    <inkscape:path-effect
       effect="fillet_chamfer"
       id="path-effect7"
       is_visible="true"
       lpeversion="1"
       nodesatellites_param="F,0,0,1,0,0,0,1 @ F,0,0,1,0,0,0,1 @ F,0,0,1,0,0,0,1 @ F,0,0,1,0,0,0,1 @ F,0,0,1,0,0,0,1 @ F,0,0,1,0,1.8451947,0,1 @ F,0,0,1,0,0.41114409,0,1 @ F,0,0,1,0,0,0,1 @ F,0,0,1,0,0,0,1 @ F,0,0,1,0,1.3864012,0,1 @ F,0,0,1,0,0,0,1 @ F,0,0,1,0,0,0,1 @ F,0,0,1,0,0,0,1 @ F,0,0,1,0,0,0,1 @ F,0,0,1,0,0,0,1 @ F,0,0,1,0,0,0,1 @ F,0,0,1,0,0,0,1 @ F,0,0,1,0,0,0,1 @ F,0,0,1,0,0,0,1 @ F,0,0,1,0,0,0,1"
       radius="0"
       unit="px"
       method="auto"
       mode="F"
       chamfer_steps="1"
       flexible="false"
       use_knot_distance="true"
       apply_no_radius="true"
       apply_with_radius="true"
       only_selected="false"
       hide_knots="false" />
    <inkscape:path-effect
       effect="fillet_chamfer"
       id="path-effect13"
       is_visible="true"
       lpeversion="1"
       nodesatellites_param="F,0,0,1,0,0,0,1 @ F,0,0,1,0,0.90508098,0,1 @ F,0,0,1,0,0,0,1 @ F,0,0,1,0,0.55335557,0,1"
       radius="0"
       unit="px"
       method="auto"
       mode="F"
       chamfer_steps="1"
       flexible="false"
       use_knot_distance="true"
       apply_no_radius="true"
       apply_with_radius="true"
       only_selected="false"
       hide_knots="false" />
  </defs>
  <g
     inkscape:label="Lager 1"
     inkscape:groupmode="layer"
     id="layer1">
    <path
       id="text1-2-1"
       style="font-size:160px;font-family:Chillax;-inkscape-font-specification:Chillax;white-space:pre;fill:url(#linearGradient9);fill-opacity:1;stroke:none;stroke-width:0"
       inkscape:label="Logga 2"
       d="m 144.84852,29.980599 c -3.55366,-0.04326 -7.40194,1.170498 -9.71723,3.286621 -1.80327,1.648155 -3.48959,3.762504 -4.42092,7.95352 l -2.96726,13.117545 c -0.0568,0.247946 -0.4121,0.241558 -0.45992,-0.0083 l -3.1317,-16.629997 a 2.2252223,2.2252223 39.669024 0 0 -2.18667,-1.813415 l -7.98897,-4.02e-4 a 16326.723,16326.723 0.00144284 0 0 -0.82228,-2.1e-5 l -0.66011,0 c -1.38915,1.01e-4 -2.08793,1.676793 -1.11001,2.663403 l 5.56401,5.546879 a 4.6658467,4.6658467 61.460372 0 1 1.26987,2.334972 l 2.84046,13.373699 c 0.71967,3.429017 3.99001,5.608591 7.06811,5.334041 2.59556,-0.23151 3.98758,-2.623622 4.55912,-3.592028 1.41577,-2.398824 3.99404,-9.576677 3.99404,-9.576677 0,0 1.71494,7.314841 3.51348,9.576677 1.79854,2.261835 4.01128,3.592028 6.80527,3.592028 3.09033,0 5.87513,-4.111273 6.75721,-5.797062 3.52115,-6.72948 5.45654,-15.723071 2.36782,-22.661666 -1.48941,-3.345854 -5.28797,-5.769142 -8.8837,-6.464721 -0.76621,-0.148221 -1.57099,-0.225146 -2.39107,-0.235128 z"
       sodipodi:nodetypes="sscccccccccsscsssssss"
       transform="matrix(1.3903359,0,0,1.3903359,-153.61395,-40.804306)"
       inkscape:export-filename="WECCS_logga.svg"
       inkscape:export-xdpi="96"
       inkscape:export-ydpi="96"
       inkscape:original-d="m 144.84852,29.980599 c -3.55366,-0.04326 -7.40194,1.170498 -9.71723,3.286621 -1.80327,1.648155 -3.48959,3.762504 -4.42092,7.95352 l -2.96726,13.117545 c -0.0568,0.247946 -0.4121,0.241558 -0.45992,-0.0083 l -3.47318,-18.443319 -10.2453,-5.16e-4 h -1.07125 c -1.38915,1.01e-4 -2.08793,1.676793 -1.11001,2.663403 l 6.54585,6.5257 3.12849,14.72985 c 0.71967,3.429017 3.99001,5.608591 7.06811,5.334041 2.59556,-0.23151 3.98758,-2.623622 4.55912,-3.592028 1.41577,-2.398824 3.99404,-9.576677 3.99404,-9.576677 0,0 1.71494,7.314841 3.51348,9.576677 1.79854,2.261835 4.01128,3.592028 6.80527,3.592028 3.09033,0 5.87513,-4.111273 6.75721,-5.797062 3.52115,-6.72948 5.45654,-15.723071 2.36782,-22.661666 -1.48941,-3.345854 -5.28797,-5.769142 -8.8837,-6.464721 -0.76621,-0.148221 -1.57099,-0.225146 -2.39107,-0.235128 z"
       inkscape:path-effect="#path-effect7" />
    <path
       style="display:inline;fill:#969cb1;fill-opacity:1;stroke:#727796;stroke-width:0;stroke-opacity:1"
       d="m 139.38047,32.470576 c -1.98625,0.853929 -4.43373,3.020571 -5.5805,4.097917 -0.36403,0.341994 -0.31511,0.400881 0.10285,0.126612 1.25251,-0.82191 3.804,-2.446175 5.61553,-3.26648 1.8682,-0.845963 5.11313,-1.200787 6.40252,-1.313058 0.30417,-0.02648 0.32321,-0.147999 0.0236,-0.195945 -1.34336,-0.215012 -4.78416,-0.214258 -6.56404,0.550954 z"
       id="path12-5"
       sodipodi:nodetypes="scscs"
       transform="matrix(1.3903359,0,0,1.3903359,-151.77274,-39.635697)"
       inkscape:original-d="m 139.38047,32.470576 c -2.692,1.157344 -6.23122,4.725992 -6.23122,4.725992 0,0 3.88195,-2.641704 6.3691,-3.767943 2.3695,-1.072961 6.95369,-1.355845 6.95369,-1.355845 -0.4043,-0.336925 -4.95009,-0.522874 -7.09157,0.397796 z"
       inkscape:path-effect="#path-effect13" />
    <path
       style="display:inline;fill:#e9dd77;fill-opacity:1;stroke:#727796;stroke-width:0;stroke-opacity:1"
       d="m 56.261894,24.881221 -3.379128,-3.858029 -4.054219,2.865161 3.823979,-1.046736 z"
       id="path12" />
    <rect
       style="fill:#505269;fill-opacity:1;stroke:#727796;stroke-width:0"
       id="rect1"
       width="17.433321"
       height="9.0545158"
       x="3.5136929"
       y="-14.325055" />
  </g>
</svg>
